<?xml version="1.0" encoding="UTF-8"?>
<svg version="1.1" xmlns="http://www.w3.org/2000/svg" width="1024" height="1024">
<path d="M0 0 C10.28304652 10.94156674 18.94548517 26.66533906 18.67504883 42.07763672 C18.65556938 43.47597244 18.65556938 43.47597244 18.63569641 44.90255737 C18.61798691 45.90151031 18.6002774 46.90046326 18.58203125 47.9296875 C18.5596175 50.07811551 18.53816493 52.22655371 18.51757812 54.375 C18.48073474 57.73628834 18.43799758 61.09704533 18.37817383 64.45800781 C18.05948216 83.26777482 19.35708733 97.13999908 29.625 113.25 C30.31197641 114.57298361 30.98752492 115.90246605 31.625 117.25 C32.285 117.25 32.945 117.25 33.625 117.25 C34.73655183 118.39628782 35.8476662 119.54300196 36.95703125 120.69140625 C54.25631146 136.85630743 78.71375417 141.35284127 101.625 141.25 C126.13145001 140.37738032 148.49353129 134.53791008 165.625 116.25 C175.8125679 104.99116207 180.21278416 90.14154004 179.875 75.1875 C179.86073975 73.69585327 179.86073975 73.69585327 179.84619141 72.17407227 C179.76205851 65.99327398 179.43450406 59.85181647 179 53.6875 C177.7298494 34.76497639 183.07674831 17.19814843 195.33081055 2.59594727 C206.43401662 -9.95385251 222.05323083 -18.53722107 238.94238281 -19.94287109 C259.78281215 -20.64665145 276.77624291 -17.41113418 292.9375 -3.3125 C294.51536527 -1.80761414 296.07915116 -0.28775539 297.625 1.25 C298.25019531 1.84039062 298.87539063 2.43078125 299.51953125 3.0390625 C308.27958957 12.01663919 313.50383464 25.0715851 315.625 37.25 C315.75390625 37.96414063 315.8828125 38.67828125 316.015625 39.4140625 C317.05425384 46.2744793 316.88635661 53.1885375 316.125 60.0625 C314.10031566 80.9643883 315.36673788 99.28769631 328.8984375 116.2890625 C343.40860048 132.76893086 363.48921538 139.24403719 384.92871094 140.79614258 C409.94001614 142.31923321 436.93193995 139.06040874 456.625 122.25 C468.01776976 111.31136144 475.35254902 97.27186644 475.96875 81.38671875 C476.0696884 74.24334196 476.05221105 67.0959234 475.1171875 60.00390625 C472.45420216 39.69335934 477.12030937 21.03416359 489.5 4.8125 C499.63255182 -6.89099009 511.51805155 -14.84561969 526.625 -18.75 C527.67880859 -19.02263672 527.67880859 -19.02263672 528.75390625 -19.30078125 C547.56673209 -22.24428461 566.1644374 -18.76705965 582.05078125 -8.125 C584.33592524 -6.4200221 586.4867448 -4.63555231 588.625 -2.75 C589.37523437 -2.09386719 590.12546875 -1.43773437 590.8984375 -0.76171875 C601.39100792 9.03254067 606.78635399 20.69117742 610.625 34.25 C610.89219849 35.19020996 610.89219849 35.19020996 611.16479492 36.14941406 C614.88453076 53.12798551 611.02286745 72.10412816 602.19921875 86.83984375 C601.67972656 87.63519531 601.16023437 88.43054688 600.625 89.25 C600.13644531 90.01441406 599.64789062 90.77882813 599.14453125 91.56640625 C589.91534912 104.66956606 574.75096583 113.2346272 559.36230469 116.64086914 C552.52415473 117.75539646 545.66435434 117.71457337 538.75 117.75 C524.90013685 117.82131114 510.82075586 118.14484051 498.3125 124.875 C497.64935791 125.22127441 496.98621582 125.56754883 496.30297852 125.92431641 C481.87418489 133.77349585 473.52461871 145.8020286 468.625 161.25 C467.28812958 166.25150317 467.47176696 171.28371921 467.44921875 176.421875 C467.42598862 178.470062 467.40187007 180.51823908 467.37695312 182.56640625 C467.34213952 185.76487569 467.3126572 188.96298701 467.29907227 192.16162109 C467.21802153 208.15480212 466.75584464 224.21294341 458.9375 238.625 C458.5971875 239.27654053 458.256875 239.92808105 457.90625 240.59936523 C448.99389334 257.04873989 434.52236837 268.99043418 416.75 274.6875 C412.05759776 275.96622186 407.49327303 277.04545071 402.625 277.25 C400.90216797 277.34474609 400.90216797 277.34474609 399.14453125 277.44140625 C380.06250276 278.1695831 362.60503022 272.28244585 348.08203125 259.609375 C337.16591167 249.12712344 329.52330916 235.14874626 326.625 220.25 C326.45009033 219.37802979 326.27518066 218.50605957 326.0949707 217.60766602 C325.55421512 213.74428337 325.5553449 209.98530353 325.6328125 206.09765625 C325.65035451 204.49935559 325.66726025 202.90104784 325.68359375 201.30273438 C325.71425144 198.82165123 325.74946208 196.34093888 325.79638672 193.86010742 C326.04226577 180.09778733 325.69016769 166.37310464 319 153.9375 C318.65372559 153.27363281 318.30745117 152.60976563 317.95068359 151.92578125 C314.67011434 145.89012094 310.65750258 140.93630693 305.625 136.25 C304.87734375 135.54488281 304.1296875 134.83976563 303.359375 134.11328125 C293.14021532 125.23073352 280.84233375 120.56258868 267.625 118.25 C266.7064624 118.07871582 265.7879248 117.90743164 264.84155273 117.73095703 C241.37882689 114.22267848 215.9373153 117.01329258 195.74609375 129.91796875 C193.75398344 131.16899935 191.74544975 132.23545375 189.625 133.25 C189.625 133.91 189.625 134.57 189.625 135.25 C188.48370892 136.39129108 187.33952537 137.52978972 186.18359375 138.65625 C174.58884275 150.51253673 170.32500575 164.6192348 170.50097656 180.91674805 C170.5212793 182.05797119 170.54158203 183.19919434 170.5625 184.375 C170.58003406 186.77992665 170.59437318 189.18487878 170.60546875 191.58984375 C170.6111084 192.73952637 170.61674805 193.88920898 170.62255859 195.07373047 C170.64125588 219.39890355 164.72428098 240.4763822 147.61328125 258.3515625 C133.27766875 272.07771273 115.02445475 277.6913716 95.43359375 277.3984375 C75.50385906 276.62168887 58.96792789 267.18776498 45.46484375 252.9765625 C33.02995821 238.55305365 28.55056197 220.11678827 28.44921875 201.4296875 C28.42600731 199.74217521 28.40188944 198.05467519 28.37695312 196.3671875 C28.34206165 193.75447481 28.31258904 191.14221284 28.29907227 188.52929688 C28.18056134 169.29041474 24.75241656 153.02774975 11.03125 138.59765625 C-8.01002548 120.02004819 -31.72351058 116.76473535 -57.26953125 117.03515625 C-72.66299303 117.41969424 -87.82940453 120.72067047 -100.47265625 129.91796875 C-102.375 131.25 -102.375 131.25 -104.49609375 132.17578125 C-106.87328262 133.53488092 -107.28481312 134.77646674 -108.375 137.25 C-109.3080672 138.51897139 -110.267913 139.76857485 -111.25 141 C-120.55302881 153.40403841 -122.4017009 168.09404829 -120.8828125 183.26171875 C-118.58848028 208.47215943 -120.51250684 230.91290658 -136.25 251.5625 C-148.53531126 266.16758102 -164.19726848 275.28518191 -183.375 277.25 C-202.16634936 278.42916344 -219.94740054 273.19108246 -234.2578125 260.7421875 C-249.63371963 246.03661965 -256.52444959 228.5610939 -257.3359375 207.59765625 C-257.66297151 191.79217225 -252.56036843 177.96973846 -243.375 165.25 C-242.60929687 164.18845703 -242.60929687 164.18845703 -241.828125 163.10546875 C-232.06690514 150.85562106 -215.76210571 142.46807784 -200.38671875 140.5390625 C-193.80155057 139.98168068 -187.1742819 139.91343126 -180.57104492 139.71142578 C-173.02265902 139.4361915 -165.4855878 139.06460767 -158.375 136.25 C-158.045 135.59 -157.715 134.93 -157.375 134.25 C-156.446875 134.188125 -155.51875 134.12625 -154.5625 134.0625 C-147.39435151 133.27266243 -140.34428485 128.24995944 -135.375 123.25 C-134.715 123.25 -134.055 123.25 -133.375 123.25 C-133.10171875 122.651875 -132.8284375 122.05375 -132.546875 121.4375 C-131.41339524 119.32167111 -130.28326864 117.96176118 -128.625 116.25 C-118.58927355 104.76657707 -115.06147657 89.16962571 -115.375 74.25 C-115.65781778 70.20706875 -116.12901982 66.1892384 -116.60107422 62.16479492 C-119.06855612 41.05007765 -115.67675068 22.61536349 -103 5.3125 C-89.8707276 -10.24702147 -73.01637359 -18.66764987 -52.8125 -20.4375 C-32.88364931 -21.70249468 -14.3662285 -13.5095268 0 0 Z " fill="#FE8E54" transform="translate(325.375,393.75)"/>
<path d="M0 0 C0.33 0 0.66 0 1 0 C1 2.31 1 4.62 1 7 C0.67 7 0.34 7 0 7 C0 4.69 0 2.38 0 0 Z " fill="#FD925C" transform="translate(352,583)"/>
<path d="M0 0 C0.33 0 0.66 0 1 0 C1 1.65 1 3.3 1 5 C0.67 5 0.34 5 0 5 C0 3.35 0 1.7 0 0 Z " fill="#FB925C" transform="translate(352,591)"/>
<path d="M0 0 C1.65 0 3.3 0 5 0 C5 0.33 5 0.66 5 1 C3.35 1 1.7 1 0 1 C0 0.67 0 0.34 0 0 Z " fill="#F6905C" transform="translate(569,372)"/>
<path d="M0 0 C1 4 1 4 1 4 Z " fill="#FA925C" transform="translate(650,609)"/>
<path d="M0 0 C4 1 4 1 4 1 Z " fill="#FD9259" transform="translate(276,511)"/>
<path d="M0 0 C4 1 4 1 4 1 Z " fill="#FD9058" transform="translate(268,511)"/>
<path d="" fill="#FB935C" transform="translate(0,0)"/>
<path d="" fill="#FC915B" transform="translate(0,0)"/>
<path d="" fill="#FC935B" transform="translate(0,0)"/>
<path d="M0 0 C3 1 3 1 3 1 Z " fill="#FD915B" transform="translate(580,511)"/>
<path d="" fill="#FC935B" transform="translate(0,0)"/>
<path d="" fill="#FB935B" transform="translate(0,0)"/>
<path d="M0 0 C2 1 2 1 2 1 Z " fill="#F38E5A" transform="translate(733,671)"/>
<path d="M0 0 C2 1 2 1 2 1 Z " fill="#F58D59" transform="translate(436,671)"/>
<path d="" fill="#F4905C" transform="translate(0,0)"/>
<path d="" fill="#F7905D" transform="translate(0,0)"/>
<path d="" fill="#F9915E" transform="translate(0,0)"/>
<path d="" fill="#FB925C" transform="translate(0,0)"/>
<path d="" fill="#FA935B" transform="translate(0,0)"/>
<path d="" fill="#F8925B" transform="translate(0,0)"/>
<path d="" fill="#FE945D" transform="translate(0,0)"/>
<path d="" fill="#FD935B" transform="translate(0,0)"/>
<path d="M0 0 C2 1 2 1 2 1 Z " fill="#FE935F" transform="translate(427,533)"/>
<path d="M0 0 C2 1 2 1 2 1 Z " fill="#FD935D" transform="translate(305,515)"/>
<path d="" fill="#FD935D" transform="translate(0,0)"/>
<path d="" fill="#FC935B" transform="translate(0,0)"/>
<path d="" fill="#F7915C" transform="translate(0,0)"/>
<path d="M0 0 C2 1 2 1 2 1 Z " fill="#F28F5E" transform="translate(868,372)"/>
<path d="M0 0 C2 1 2 1 2 1 Z " fill="#F38F5C" transform="translate(276,372)"/>
<path d="" fill="#727071" transform="translate(0,0)"/>
<path d="" fill="#6C6C6B" transform="translate(0,0)"/>
<path d="" fill="#6C6C6B" transform="translate(0,0)"/>
<path d="" fill="#696866" transform="translate(0,0)"/>
<path d="" fill="#676564" transform="translate(0,0)"/>
<path d="" fill="#676664" transform="translate(0,0)"/>
<path d="" fill="#696766" transform="translate(0,0)"/>
<path d="" fill="#666563" transform="translate(0,0)"/>
<path d="" fill="#666463" transform="translate(0,0)"/>
<path d="" fill="#646364" transform="translate(0,0)"/>
<path d="" fill="#656361" transform="translate(0,0)"/>
<path d="" fill="#626262" transform="translate(0,0)"/>
<path d="" fill="#615F5D" transform="translate(0,0)"/>
<path d="" fill="#605D5C" transform="translate(0,0)"/>
<path d="" fill="#645F5C" transform="translate(0,0)"/>
<path d="" fill="#5E5C5B" transform="translate(0,0)"/>
<path d="" fill="#685F5B" transform="translate(0,0)"/>
<path d="" fill="#695D59" transform="translate(0,0)"/>
<path d="" fill="#5D5C5C" transform="translate(0,0)"/>
<path d="" fill="#635C59" transform="translate(0,0)"/>
<path d="" fill="#5C5959" transform="translate(0,0)"/>
<path d="" fill="#605856" transform="translate(0,0)"/>
<path d="" fill="#726057" transform="translate(0,0)"/>
<path d="" fill="#896A5A" transform="translate(0,0)"/>
<path d="" fill="#7B6456" transform="translate(0,0)"/>
<path d="" fill="#8A6857" transform="translate(0,0)"/>
<path d="" fill="#946D57" transform="translate(0,0)"/>
<path d="" fill="#996E5A" transform="translate(0,0)"/>
<path d="" fill="#A4745D" transform="translate(0,0)"/>
<path d="" fill="#6F5E55" transform="translate(0,0)"/>
<path d="" fill="#9B7059" transform="translate(0,0)"/>
<path d="" fill="#A5755D" transform="translate(0,0)"/>
<path d="" fill="#AC775D" transform="translate(0,0)"/>
<path d="" fill="#A57359" transform="translate(0,0)"/>
<path d="" fill="#A9775D" transform="translate(0,0)"/>
<path d="" fill="#B67B5C" transform="translate(0,0)"/>
<path d="" fill="#716054" transform="translate(0,0)"/>
<path d="" fill="#BE7E61" transform="translate(0,0)"/>
<path d="" fill="#F2935C" transform="translate(0,0)"/>
<path d="" fill="#CE835E" transform="translate(0,0)"/>
<path d="" fill="#F4915A" transform="translate(0,0)"/>
<path d="" fill="#F0905D" transform="translate(0,0)"/>
<path d="" fill="#7E6356" transform="translate(0,0)"/>
<path d="" fill="#F0905C" transform="translate(0,0)"/>
<path d="" fill="#F6905D" transform="translate(0,0)"/>
<path d="" fill="#F5925D" transform="translate(0,0)"/>
<path d="" fill="#F7925D" transform="translate(0,0)"/>
<path d="" fill="#F5925D" transform="translate(0,0)"/>
<path d="" fill="#F7915C" transform="translate(0,0)"/>
<path d="" fill="#F58F5A" transform="translate(0,0)"/>
<path d="" fill="#F5925E" transform="translate(0,0)"/>
<path d="" fill="#F4935F" transform="translate(0,0)"/>
<path d="" fill="#F6925F" transform="translate(0,0)"/>
<path d="" fill="#F6925F" transform="translate(0,0)"/>
<path d="" fill="#FA935E" transform="translate(0,0)"/>
<path d="" fill="#F68F5A" transform="translate(0,0)"/>
<path d="" fill="#FB925C" transform="translate(0,0)"/>
<path d="" fill="#FB9360" transform="translate(0,0)"/>
<path d="" fill="#F8915D" transform="translate(0,0)"/>
<path d="" fill="#F7935D" transform="translate(0,0)"/>
<path d="" fill="#F7905C" transform="translate(0,0)"/>
<path d="" fill="#F6905C" transform="translate(0,0)"/>
<path d="" fill="#FB935C" transform="translate(0,0)"/>
<path d="" fill="#E88E60" transform="translate(0,0)"/>
<path d="" fill="#F39261" transform="translate(0,0)"/>
<path d="" fill="#F7935D" transform="translate(0,0)"/>
<path d="" fill="#FE925A" transform="translate(0,0)"/>
<path d="" fill="#FF915A" transform="translate(0,0)"/>
<path d="" fill="#F9945E" transform="translate(0,0)"/>
<path d="" fill="#F9935A" transform="translate(0,0)"/>
<path d="" fill="#F6925F" transform="translate(0,0)"/>
<path d="" fill="#FC925A" transform="translate(0,0)"/>
<path d="" fill="#FD955D" transform="translate(0,0)"/>
<path d="" fill="#FA945C" transform="translate(0,0)"/>
<path d="" fill="#FF935D" transform="translate(0,0)"/>
<path d="" fill="#FE925B" transform="translate(0,0)"/>
<path d="" fill="#F7935E" transform="translate(0,0)"/>
<path d="" fill="#FC935F" transform="translate(0,0)"/>
<path d="" fill="#FD935D" transform="translate(0,0)"/>
<path d="" fill="#FC915C" transform="translate(0,0)"/>
<path d="" fill="#FF925D" transform="translate(0,0)"/>
<path d="" fill="#FE935B" transform="translate(0,0)"/>
<path d="" fill="#FF945F" transform="translate(0,0)"/>
<path d="" fill="#FE925B" transform="translate(0,0)"/>
<path d="" fill="#FD945D" transform="translate(0,0)"/>
<path d="" fill="#FC945D" transform="translate(0,0)"/>
<path d="" fill="#FC935D" transform="translate(0,0)"/>
<path d="" fill="#F7935C" transform="translate(0,0)"/>
<path d="" fill="#FE925E" transform="translate(0,0)"/>
<path d="" fill="#FB925D" transform="translate(0,0)"/>
<path d="" fill="#A8775C" transform="translate(0,0)"/>
<path d="" fill="#FE955D" transform="translate(0,0)"/>
<path d="" fill="#FA935B" transform="translate(0,0)"/>
<path d="" fill="#FC955D" transform="translate(0,0)"/>
<path d="" fill="#FC945D" transform="translate(0,0)"/>
<path d="" fill="#FE935E" transform="translate(0,0)"/>
<path d="" fill="#FD975E" transform="translate(0,0)"/>
<path d="" fill="#FC925C" transform="translate(0,0)"/>
<path d="" fill="#FB925E" transform="translate(0,0)"/>
<path d="" fill="#FA955A" transform="translate(0,0)"/>
<path d="" fill="#FE945E" transform="translate(0,0)"/>
<path d="" fill="#FE955E" transform="translate(0,0)"/>
<path d="" fill="#FB945A" transform="translate(0,0)"/>
<path d="" fill="#F99059" transform="translate(0,0)"/>
<path d="" fill="#FD9158" transform="translate(0,0)"/>
<path d="" fill="#FE945F" transform="translate(0,0)"/>
<path d="" fill="#FE925A" transform="translate(0,0)"/>
<path d="" fill="#FB9359" transform="translate(0,0)"/>
<path d="" fill="#FC935C" transform="translate(0,0)"/>
<path d="" fill="#D9895F" transform="translate(0,0)"/>
<path d="" fill="#FA925A" transform="translate(0,0)"/>
<path d="" fill="#FD945F" transform="translate(0,0)"/>
<path d="" fill="#F49361" transform="translate(0,0)"/>
<path d="" fill="#FA925B" transform="translate(0,0)"/>
<path d="" fill="#FA945F" transform="translate(0,0)"/>
<path d="" fill="#F8905C" transform="translate(0,0)"/>
<path d="" fill="#F5925C" transform="translate(0,0)"/>
<path d="" fill="#F6915E" transform="translate(0,0)"/>
<path d="" fill="#F3935B" transform="translate(0,0)"/>
<path d="" fill="#F39161" transform="translate(0,0)"/>
<path d="" fill="#E58D63" transform="translate(0,0)"/>
<path d="" fill="#F6935B" transform="translate(0,0)"/>
<path d="" fill="#F5905D" transform="translate(0,0)"/>
<path d="" fill="#CE825E" transform="translate(0,0)"/>
<path d="" fill="#F68E5B" transform="translate(0,0)"/>
<path d="" fill="#F48D58" transform="translate(0,0)"/>
<path d="" fill="#F08F5B" transform="translate(0,0)"/>
<path d="" fill="#F38F5B" transform="translate(0,0)"/>
<path d="" fill="#CC815C" transform="translate(0,0)"/>
<path d="" fill="#CF845E" transform="translate(0,0)"/>
<path d="" fill="#F78F59" transform="translate(0,0)"/>
<path d="" fill="#F2905E" transform="translate(0,0)"/>
<path d="" fill="#F2905E" transform="translate(0,0)"/>
<path d="" fill="#F48F5E" transform="translate(0,0)"/>
<path d="" fill="#F28E5D" transform="translate(0,0)"/>
<path d="" fill="#F3905D" transform="translate(0,0)"/>
<path d="" fill="#F38F5C" transform="translate(0,0)"/>
<path d="" fill="#AF785D" transform="translate(0,0)"/>
<path d="" fill="#906753" transform="translate(0,0)"/>
<path d="" fill="#9A6E58" transform="translate(0,0)"/>
<path d="" fill="#615752" transform="translate(0,0)"/>
<path d="" fill="#916957" transform="translate(0,0)"/>
<path d="" fill="#806254" transform="translate(0,0)"/>
<path d="" fill="#5C5753" transform="translate(0,0)"/>
<path d="" fill="#866554" transform="translate(0,0)"/>
<path d="" fill="#665952" transform="translate(0,0)"/>
<path d="" fill="#806153" transform="translate(0,0)"/>
<path d="" fill="#856455" transform="translate(0,0)"/>
<path d="" fill="#816354" transform="translate(0,0)"/>
<path d="" fill="#746155" transform="translate(0,0)"/>
<path d="" fill="#715D53" transform="translate(0,0)"/>
<path d="" fill="#745E55" transform="translate(0,0)"/>
<path d="" fill="#6C5E57" transform="translate(0,0)"/>
<path d="" fill="#685B56" transform="translate(0,0)"/>
<path d="" fill="#705F55" transform="translate(0,0)"/>
<path d="" fill="#615856" transform="translate(0,0)"/>
<path d="" fill="#675953" transform="translate(0,0)"/>
<path d="" fill="#655B56" transform="translate(0,0)"/>
<path d="" fill="#5B5858" transform="translate(0,0)"/>
<path d="" fill="#5B5957" transform="translate(0,0)"/>
<path d="" fill="#67605C" transform="translate(0,0)"/>
<path d="" fill="#655D59" transform="translate(0,0)"/>
<path d="" fill="#635B58" transform="translate(0,0)"/>
<path d="" fill="#5C5B5A" transform="translate(0,0)"/>
<path d="" fill="#6A625C" transform="translate(0,0)"/>
<path d="" fill="#5F5C5B" transform="translate(0,0)"/>
<path d="" fill="#625A5A" transform="translate(0,0)"/>
<path d="" fill="#615D5A" transform="translate(0,0)"/>
<path d="" fill="#615D5B" transform="translate(0,0)"/>
<path d="" fill="#5D5D5D" transform="translate(0,0)"/>
<path d="" fill="#5F5B5C" transform="translate(0,0)"/>
<path d="" fill="#645F5C" transform="translate(0,0)"/>
<path d="" fill="#636160" transform="translate(0,0)"/>
<path d="" fill="#626160" transform="translate(0,0)"/>
<path d="" fill="#636161" transform="translate(0,0)"/>
<path d="" fill="#636363" transform="translate(0,0)"/>
<path d="" fill="#646263" transform="translate(0,0)"/>
<path d="" fill="#656263" transform="translate(0,0)"/>
<path d="" fill="#686969" transform="translate(0,0)"/>
<path d="" fill="#666765" transform="translate(0,0)"/>
<path d="" fill="#656666" transform="translate(0,0)"/>
<path d="" fill="#696867" transform="translate(0,0)"/>
<path d="" fill="#686A69" transform="translate(0,0)"/>
<path d="" fill="#686868" transform="translate(0,0)"/>
<path d="" fill="#6C6A69" transform="translate(0,0)"/>
<path d="" fill="#6C6E6D" transform="translate(0,0)"/>
<path d="" fill="#737473" transform="translate(0,0)"/>
<path d="" fill="#6F7070" transform="translate(0,0)"/>
<path d="" fill="#727473" transform="translate(0,0)"/>
<path d="" fill="#727173" transform="translate(0,0)"/>
<path d="" fill="#747373" transform="translate(0,0)"/>
<path d="" fill="#757375" transform="translate(0,0)"/>
<path d="" fill="#747475" transform="translate(0,0)"/>
<path d="" fill="#747576" transform="translate(0,0)"/>
<path d="" fill="#757576" transform="translate(0,0)"/>
</svg>
